<?xml version="1.0" encoding="UTF-8"?>
<svg xmlns="http://www.w3.org/2000/svg" xml:space="preserve" viewBox="0 0 70 70">
  <path fill="#6F2D6E" d="M39.629 39.51a1.495 1.495 0 0 1-.016-.231c0-.128.029-.25.057-.373.578-2.634 7.199-4.013 13.758-4.013 2.223 0 4.451.162 6.451.473V11.019a5 5 0 0 0-5-5H9.182a5 5 0 0 0-5 5V57.83a5 5 0 0 0 5 5l31.218-.064c-.508-.513-.787-1.085-.787-1.671l.016-21.585zm6.73-25.143h1.768v9.581h4.277v1.488h-6.045V14.367zM19.918 25.436h-1.675v-9.209h-.03l-2.232 9.209h-1.488l-2.232-9.209h-.031v9.209h-1.675V14.367h2.76l1.953 8.201h.031l1.923-8.201h2.697v11.069zm5.484.311c-.65 2.278-1.193 2.573-2.914 2.542-.217 0-.449-.031-.666-.062v-1.334c.186.031.355.063.543.063.572 0 .945-.124 1.131-.651l.217-.682-2.371-8.527h1.798l1.442 6.264h.03l1.333-6.264h1.752l-2.295 8.651zm6.682-.094c-2.744 0-3.364-1.829-3.364-3.379v-.264h1.767v.279c0 1.349.59 2.03 1.814 2.03 1.116 0 1.674-.79 1.674-1.612 0-1.162-.588-1.674-1.58-1.969l-1.21-.419c-1.612-.62-2.31-1.457-2.31-3.038 0-2.016 1.363-3.132 3.441-3.132 2.837 0 3.131 1.768 3.131 2.915v.248H33.68v-.232c0-1.008-.45-1.598-1.55-1.598-.76 0-1.488.419-1.488 1.598 0 .945.48 1.426 1.658 1.875l1.193.435c1.566.558 2.248 1.411 2.248 2.93.001 2.356-1.425 3.333-3.657 3.333zm5.207-5.751c0-3.953 1.115-5.752 3.658-5.752s3.658 1.799 3.658 5.752c0 2.046-.371 3.581-.867 4.387l1.131 1.194-1.053.945-1.133-1.147c-.449.264-1.039.372-1.736.372-2.543 0-3.658-1.798-3.658-5.751z"/>
  <path fill="#6F2D6E" d="m41.586 24.211-.838-.821 1.008-1.008.729.729c.248-.667.357-1.705.357-3.256 0-3.721-.838-4.372-1.893-4.372s-1.891.651-1.891 4.372c0 3.813.836 4.465 1.891 4.465.233 0 .434-.031.637-.109zm18.293 18.985v-.004c-.346.057-.688.101-1.032.146-.177.023-.347.049-.526.07-.322.037-.646.064-.972.092-.207.018-.413.037-.626.052a41.56 41.56 0 0 1-1.261.068l-.207.007c-.49.017-.989.028-1.509.031-.105.001-.211.005-.318.005-4.928 0-9.887-.781-12.299-2.285v19.816c.135.456 1.306 1.054 2.947 1.59 2.215.653 5.634 1.195 10.152 1.195 8.271 0 11.705-1.87 11.705-2.871l.016-19.909c-1.287.84-3.374 1.555-6.07 1.997zM47.69 46.271h3.949l1.881 9.298h.037l1.9-9.298h3.93v13.172h-2.436V48.928h-.037l-2.342 10.515h-2.066l-2.344-10.515h-.037v10.515H47.69V46.271z"/>
  <path fill="#6F2D6E" d="M53.428 36.393c-7.969 0-12.314 1.906-12.314 2.886s4.346 2.887 12.314 2.887c2.532 0 4.695-.193 6.473-.488 3.814-.632 5.842-1.731 5.842-2.399s-2.027-1.767-5.842-2.398c-1.778-.295-3.941-.488-6.473-.488z"/>
  <path fill="#fff" d="M50.126 48.928h.037l2.344 10.515h2.066l2.342-10.515h.037v10.515h2.436V46.271h-3.93l-1.9 9.298h-.037l-1.881-9.298h-3.95v13.172h2.436zm-34.828-26.36h-.031l-1.954-8.201h-2.759v11.069h1.675v-9.209h.031l2.232 9.209h1.488l2.233-9.209h.03v9.209h1.675V14.367h-2.697zm9.314.791h-.03l-1.442-6.264h-1.798l2.371 8.527-.217.682c-.186.527-.559.651-1.131.651-.188 0-.357-.031-.543-.063v1.334c.217.03.449.062.666.062 1.721.031 2.264-.264 2.914-2.542l2.295-8.651h-1.752l-1.333 6.264zm8.882-3.969-1.193-.435c-1.178-.449-1.658-.93-1.658-1.875 0-1.179.729-1.598 1.488-1.598 1.1 0 1.55.59 1.55 1.598v.232h1.767v-.248c0-1.147-.294-2.915-3.131-2.915-2.078 0-3.441 1.116-3.441 3.132 0 1.581.697 2.418 2.31 3.038l1.21.419c.992.295 1.58.807 1.58 1.969 0 .822-.558 1.612-1.674 1.612-1.225 0-1.814-.682-1.814-2.03v-.279H28.72v.264c0 1.55.62 3.379 3.364 3.379 2.232 0 3.658-.977 3.658-3.333 0-1.519-.681-2.372-2.248-2.93zm9.192 5.891 1.133 1.147 1.053-.945-1.131-1.194c.496-.806.867-2.341.867-4.387 0-3.953-1.115-5.752-3.658-5.752s-3.658 1.799-3.658 5.752 1.115 5.751 3.658 5.751c.696 0 1.286-.109 1.736-.372zm-3.627-5.426c0-3.721.836-4.372 1.891-4.372s1.893.651 1.893 4.372c0 1.551-.109 2.589-.357 3.256l-.729-.729-1.008 1.008.838.821a1.734 1.734 0 0 1-.637.108c-1.055.001-1.891-.651-1.891-4.464zm13.345 4.093h-4.277v-9.581h-1.768v11.069h6.045z"/>
</svg>